# AST/ASF file generated using VICON BodyLanguage
# -----------------------------------------------
:version 1.10
:name VICON
:units
  mass 1.0
  length 0.45
  angle deg
:documentation
   .ast/.asf automatically generated from VICON data using
   VICON BodyBuilder and BodyLanguage model FoxedUp or BRILLIANT.MOD
:root
   order TX TY TZ RX RY RZ
   axis XYZ
   position 0 0 0  
   orientation 0 0 0 
:bonedata
  begin
     id 1 
     name lhipjoint
     direction 0.710188 -0.616876 0.339259 
     length 2.5669 
     axis 0 0 0  XYZ
  end
  begin
     id 2 
     name lfemur
     direction 0.34202 -0.939693 0  
     length 7.12796  
     axis 0 0 20  XYZ
    dof rx ry rz
    limits (-160.0 20.0)
           (-70.0 70.0)
           (-60.0 70.0)
  end
  begin
     id 3 
     name ltibia
     direction 0.34202 -0.939693 0   
     length 7.58108   
     axis 0 0 20   XYZ
    dof rx
    limits (-10.0 170.0)
  end
  begin
     id 4 
     name lfoot
     direction 0.0669471 -0.183936 0.980656   
     length 2.17365   
     axis -90 7.62852e-016 20   XYZ
    dof rx rz
    limits (-45.0 90.0)
           (-70.0 20.0)
  end
  begin
     id 5 
     name ltoes
     direction 1.53508e-011 -4.21705e-011 1   
     length 1.09427   
     axis -90 7.62852e-016 20   XYZ
    dof rx
    limits (-90.0 20.0)
  end
  begin
     id 6 
     name rhipjoint
     direction -0.700191 -0.625589 0.34405   
     length 2.53115  
     axis 0 0 0  XYZ 
  end
  begin
     id 7 
     name rfemur
     direction -0.34202 -0.939693 0   
     length 7.33006   
     axis 0 0 -20   XYZ
    dof rx ry rz
    limits (-160.0 20.0)
           (-70.0 70.0)
           (-70.0 60.0)
  end
  begin
     id 8 
     name rtibia
     direction -0.34202 -0.939693 0   
     length 7.64926   
     axis 0 0 -20   XYZ
    dof rx
    limits (-10.0 170.0)
 end
 begin
     id 9 
     name rfoot
     direction -0.0688927 -0.189281 0.979503   
     length 2.20493  
     axis -90 -7.62852e-016 -20   XYZ
    dof rx rz
    limits (-45.0 90.0)
           (-20.0 70.0)
  end
  begin
     id 10 
     name rtoes
     direction -1.53567e-011 -4.21933e-011 1   
     length 1.10919   
     axis -90 -7.62852e-016 -20   XYZ
    dof rx
    limits (-90.0 20.0)
  end
  begin
     id 11 
     name lowerback
     direction -0.0167868 0.989873 -0.140959   
     length 2.14596   
     axis 0 0 0   XYZ
    dof rx ry rz
    limits (-20.0 45.0)
           (-30.0 30.0)
           (-30.0 30.0)
  end
  begin
     id 12 
     name upperback
     direction 0.0129109 0.998033 0.0613525   
     length 2.10457   
     axis 0 0 0   XYZ
    dof rx ry rz
    limits (-20.0 45.0)
           (-30.0 30.0)
           (-30.0 30.0)
  end
  begin
     id 13 
     name thorax
     direction 0.0177047 0.991119 0.131797   
     length 2.17652   
     axis 0 0 0   XYZ
    dof rx ry rz
    limits (-20.0 45.0)
           (-30.0 30.0)
           (-30.0 30.0)
  end
  begin
     id 14 
     name lowerneck
     direction -0.0336893 0.997548 0.0613464   
     length 1.8912   
     axis 0 0 0   XYZ
    dof rx ry rz
    limits (-20.0 45.0)
           (-30.0 30.0)
           (-30.0 30.0)
  end
  begin
     id 15 
     name upperneck
     direction 0.0435909 0.997179 -0.0611028   
     length 1.8829   
     axis 0 0 0   XYZ
    dof rx ry rz
    limits (-20.0 45.0)
           (-30.0 30.0)
           (-30.0 30.0)
  end
  begin
     id 16
     name head
     direction 0.0175076 0.999444 -0.0283782  
     length 1.93197  
     axis 0 0 0   XYZ
    dof rx ry rz
    limits (-20.0 45.0)
           (-30.0 30.0)
           (-30.0 30.0)
  end
  begin
     id 17 
     name lclavicle
     direction 0.919164 0.389875 0.0559876  
     length 3.60004  
     axis 0 0 0   XYZ
    dof ry rz
    limits (-20.0 10.0)
           (0.0 20.0)
  end
  begin
     id 18 
     name lhumerus
     direction 1 -4.48958e-011 6.89191e-027   
     length 5.43301   
     axis 180 -30 -90   XYZ
    dof rx ry rz
    limits (-60.0 90.0)
           (-90.0 90.0)
           (-90.0 90.0)
  end
  begin
     id 19
     name lradius
     direction 1 -4.4897e-011 3.24727e-027   
     length 3.15936   
     axis 180 -30 -90   XYZ
    dof rx
    limits (-10.0 170.0)
  end
  begin
     id 20
     name lwrist
     direction 1 -4.4897e-011 9.00228e-027   
     length 1.57968   
     axis -6.29373e-015 90 90   XYZ
    dof ry
    limits (-180.0 0.0)
 end
  begin
     id 21 
     name lhand
     direction 1 -4.48968e-011 1.80042e-026   
     length 0.712827   
     axis -1.14882e-014 90 90   XYZ
    dof rx rz
    limits (-90.0 90.0)
           (-45.0 45.0)
  end
  begin
     id 22 
     name lfingers
     direction 1 -4.49019e-011 3.60267e-026   
     length 0.574699   
     axis -2.29769e-014 90 90   XYZ
    dof rx
    limits (0.0 90.0)
  end
  begin
     id 23
     name lthumb
     direction 0.707107 -6.3498e-011 0.707107   
     length 0.825157   
     axis -90 45 5.37419e-014   XYZ
    dof rx rz
    limits (-45.0 45.0)
           (-45.0 45.0)
  end
  begin
     id 24 
     name rclavicle
     direction -0.890334 0.455305 -0.00132111   
     length 3.51494  
     axis 0 0 0   XYZ 
    dof ry rz
    limits (-10.0 20.0)
           (-20.0 0.0)
  end
  begin
     id 25 
     name rhumerus
     direction -1 -4.48967e-011 5.07175e-028  
     length 5.34194   
     axis 180 30 90   XYZ
    dof rx ry rz
    limits (-90.0 60.0)
           (-90.0 90.0)
           (-90.0 90.0)
  end
  begin
     id 26 
     name rradius
     direction -1 -4.48955e-011 3.30467e-027   
     length 3.19351   
     axis 180 30 90   XYZ
    dof rx
    limits (-10.0 170.0)
  end
  begin
     id 27 
     name rwrist
     direction -1 -4.48968e-011 9.00208e-027   
     length 1.59676   
     axis -6.29373e-015 -90 -90   XYZ
    dof ry
    limits (-180.0 0.0)
  end
  begin
     id 28
     name rhand
     direction -1 -4.49e-011 1.80099e-026   
     length 0.743862   
     axis -1.14882e-014 -90 -90   XYZ
    dof rx rz
    limits (-90.0 90.0)
           (-45.0 45.0)
  end
  begin
     id 29
     name rfingers
     direction -1 -4.49009e-011 3.6023e-026   
     length 0.599721   
     axis -2.29769e-014 -90 -90   XYZ
    dof rx
    limits (0.0 90.0)
  end
  begin
     id 30
     name rthumb
     direction -0.707107 -6.35025e-011 0.707107   
     length 0.861083   
     axis -90 -45 -5.37419e-014   XYZ
    dof rx rz
    limits (-45.0 45.0)
           (-45.0 45.0)
  end
:hierarchy
  begin
    root lhipjoint rhipjoint lowerback
    lhipjoint lfemur
    lfemur ltibia
    ltibia lfoot
    lfoot ltoes
    rhipjoint rfemur
    rfemur rtibia
    rtibia rfoot
    rfoot rtoes
    lowerback upperback
    upperback thorax
    thorax lowerneck lclavicle rclavicle
    lowerneck upperneck
    upperneck head
    lclavicle lhumerus
    lhumerus lradius
    lradius lwrist
    lwrist lhand lthumb
    lhand lfingers
    rclavicle rhumerus
    rhumerus rradius
    rradius rwrist
    rwrist rhand rthumb
    rhand rfingers
  end

#!OML:ASF H:\Martial Arts Walks\Project 1\Capture day 1\Session 1\male.ASF
:FULLY-SPECIFIED
:DEGREES
93
root -3.08471 16.2431 -31.9942 -5.61561 14.6468 -14.0213
lowerback 15.541 4.78736 -7.99211
upperback 0.575276 5.20772 2.99939
thorax -9.13158 2.93479 6.56337
lowerneck -0.795249 -7.69264 -7.95596
upperneck 5.08372 -10.8872 13.6755
head 2.8282 -5.272 5.04396
rclavicle 7.53394e-014 2.54444e-014
rhumerus -27.8522 7.60913 -57.6574
rradius 102.785
rwrist 17.2565
rhand -33.3777 -42.016
rfingers 7.12502
rthumb -6.57885 -71.8938
lclavicle 7.53394e-014 2.54444e-014
lhumerus -17.604 -5.64805 62.0831
lradius 87.1149
lwrist 4.06028
lhand -18.1724 1.69569
lfingers 7.12502
lthumb 8.1039 31.5203
rfemur -49.6439 -23.9946 6.02535
rtibia 117.875
rfoot -19.0565 1.98441
rtoes -26.5781
lfemur -32.11 1.41696 -11.4053
ltibia 57.1744
lfoot -17.2952 13.8618
ltoes 5.74237
94
root -3.13767 16.3655 -31.8707 -7.6187 16.6235 -15.2677
lowerback 16.6914 4.36063 -7.99788
upperback 1.18795 4.61888 3.60451
thorax -9.04346 2.64529 7.36149
lowerneck -0.762348 -7.67107 -7.91978
upperneck 4.99861 -10.861 13.8218
head 2.801 -5.25827 5.08711
rclavicle -3.85642e-014 -2.70347e-014
rhumerus -28.655 6.66478 -57.0855
rradius 100.992
rwrist 17.2202
rhand -33.5492 -42.3872
rfingers 7.12502
rthumb -6.74441 -72.2597
lclavicle -3.85642e-014 -2.70347e-014
lhumerus -15.0924 -5.42306 62.2485
lradius 86.2565
lwrist 6.11513
lhand -17.167 2.4162
lfingers 7.12502
lthumb 9.07423 32.201
rfemur -51.7078 -25.1289 4.60456
rtibia 119.2
rfoot -19.8325 3.21907
rtoes -27.3571
lfemur -29.6952 0.174204 -10.1642
ltibia 55.7175
lfoot -17.0077 13.233
ltoes 4.90188
95
root -3.19684 16.4957 -31.7479 -9.81031 18.6089 -16.9048
lowerback 18.0281 3.88286 -7.72911
upperback 1.68937 4.00936 4.2189
thorax -9.13807 2.34548 8.03088
lowerneck -0.552803 -7.63243 -7.82422
upperneck 4.91508 -10.8256 14.0419
head 2.74446 -5.24408 5.15145
rclavicle -4.33351e-014 -2.38542e-014
rhumerus -29.4304 5.73854 -56.6398
rradius 99.0268
rwrist 17.0691
rhand -33.7322 -42.9005
rfingers 7.12502
rthumb -6.92105 -72.7674
lclavicle -4.33351e-014 -2.38542e-014
lhumerus -12.628 -5.3636 62.3617
lradius 85.3636
lwrist 8.53421
lhand -16.0618 3.24829
lfingers 7.12502
lthumb 10.1405 32.9839
rfemur -53.5853 -26.3533 3.29884
rtibia 120.452
rfoot -20.5114 3.7433
rtoes -28.0118
lfemur -27.3979 -0.904457 -8.57585
ltibia 54.312
lfoot -16.823 12.2147
ltoes 4.58291
96
root -3.26394 16.6224 -31.6252 -12.0798 20.6805 -18.5883
lowerback 19.4193 3.36717 -7.59491
upperback 2.19069 3.33237 4.83812
thorax -9.23862 2.02036 8.83099
lowerneck -0.407501 -7.60067 -7.79209
upperneck 4.91684 -10.8036 14.259
head 2.72844 -5.23325 5.22039
rclavicle 1.74931e-014 3.81667e-014
rhumerus -30.1673 4.89894 -56.1604
rradius 97.1063
rwrist 16.8307
rhand -33.6042 -42.9555
rfingers 7.12502
rthumb -6.79745 -72.8264
lclavicle 1.74931e-014 3.81667e-014
lhumerus -10.1274 -5.30907 62.5338
lradius 84.4111
lwrist 11.2351
lhand -15.2133 4.27902
lfingers 7.12502
lthumb 10.959 33.973
rfemur -55.3195 -27.8387 1.58163
rtibia 121.71
rfoot -20.7368 4.43262
rtoes -27.2822
lfemur -25.3073 -1.84093 -7.1271
ltibia 53.0148
lfoot -16.2663 11.4841
ltoes 3.04269
97
root -3.34217 16.7423 -31.4966 -14.5327 22.6815 -20.5373
lowerback 20.9031 2.87373 -7.31192
upperback 2.64184 2.72169 5.4189
thorax -9.42778 1.72724 9.50916
lowerneck -0.198968 -7.60071 -7.67655
upperneck 4.91912 -10.8338 14.5554
head 2.70781 -5.24761 5.3
rclavicle 2.32578e-014 3.02153e-014
rhumerus -31.0409 4.01385 -55.7833
rradius 95.2303
rwrist 16.6125
rhand -33.3036 -42.6856
rfingers 7.12502
rthumb -6.5073 -72.5656
lclavicle 2.32578e-014 3.02153e-014
lhumerus -7.58004 -5.55896 62.614
lradius 83.4489
lwrist 14.257
lhand -14.8887 5.42721
lfingers 7.12502
lthumb 11.2721 35.1043
rfemur -56.8812 -29.3864 -0.214516
rtibia 122.937
rfoot -20.9533 4.6175
rtoes -26.6355
lfemur -23.4204 -1.94174 -5.65865
ltibia 51.928
lfoot -15.548 11.0904
ltoes 0.794532
98
root -3.42768 16.8669 -31.3643 -16.9707 24.5757 -22.7145
lowerback 22.23 2.34058 -7.05515
upperback 3.10488 2.08489 6.06193
thorax -9.49597 1.41989 10.313
lowerneck -0.222206 -7.56558 -7.67207
upperneck 4.9962 -10.8164 14.8987
head 2.75116 -5.22806 5.40392
rclavicle -2.28602e-014 -1.90833e-014
rhumerus -31.5829 3.27986 -55.4105
rradius 93.2904
rwrist 16.2339
rhand -33.3045 -43.14
rfingers 7.12502
rthumb -6.50819 -73.02
lclavicle -2.28602e-014 -1.90833e-014
lhumerus -4.95592 -5.6676 62.6667
lradius 82.4301
lwrist 17.3081
lhand -14.5942 6.42939
lfingers 7.12502
lthumb 11.5561 36.0908
rfemur -58.5788 -31.0071 -1.88243
rtibia 124.012
rfoot -21.677 3.86787
rtoes -27.8215
lfemur -22.0107 -1.50444 -4.0823
ltibia 51.0686
lfoot -14.5911 10.5899
ltoes 0.172356
